# Blender v2.82 (sub 7) OBJ File: 'OilBubble.blend'
# www.blender.org
mtllib OilBubble.mtl
o Sphere
v 0.000000 0.302424 -0.302424
v 0.000000 -0.000000 -0.427693
v 0.000000 -0.302425 -0.302424
v 0.213846 0.302424 -0.213846
v 0.302425 -0.000000 -0.302424
v 0.213846 -0.302425 -0.213846
v 0.302425 0.302424 0.000000
v 0.427693 -0.000000 0.000000
v 0.302425 -0.302425 0.000000
v 0.213846 0.302424 0.213846
v 0.302425 -0.000000 0.302425
v 0.213846 -0.302425 0.213846
v 0.000000 -0.427693 0.000000
v 0.000000 0.302424 0.302425
v 0.000000 -0.000000 0.427693
v 0.000000 -0.302425 0.302425
v 0.000000 0.427693 0.000000
v -0.213846 0.302424 0.213846
v -0.302424 -0.000000 0.302424
v -0.213846 -0.302425 0.213846
v -0.302424 0.302424 0.000000
v -0.427693 -0.000000 0.000000
v -0.302424 -0.302425 0.000000
v -0.213846 0.302424 -0.213846
v -0.302424 -0.000000 -0.302424
v -0.213846 -0.302425 -0.213846
vt 0.750000 0.500000
vt 0.625000 0.250000
vt 0.750000 0.250000
vt 0.750000 0.750000
vt 0.687500 1.000000
vt 0.625000 0.750000
vt 0.687500 0.000000
vt 0.625000 0.500000
vt 0.562500 0.000000
vt 0.500000 0.250000
vt 0.500000 0.500000
vt 0.562500 1.000000
vt 0.500000 0.750000
vt 0.437500 1.000000
vt 0.375000 0.750000
vt 0.437500 0.000000
vt 0.375000 0.250000
vt 0.375000 0.500000
vt 0.250000 0.250000
vt 0.312500 1.000000
vt 0.250000 0.750000
vt 0.312500 0.000000
vt 0.250000 0.500000
vt 0.125000 0.250000
vt 0.187500 1.000000
vt 0.125000 0.750000
vt 0.187500 0.000000
vt 0.125000 0.500000
vt 0.000000 0.250000
vt 0.062500 1.000000
vt 0.000000 0.750000
vt 0.062500 0.000000
vt 0.000000 0.500000
vt 1.000000 0.500000
vt 0.875000 0.250000
vt 1.000000 0.250000
vt 1.000000 0.750000
vt 0.937500 1.000000
vt 0.875000 0.750000
vt 0.937500 0.000000
vt 0.875000 0.500000
vt 0.812500 1.000000
vt 0.812500 0.000000
vn 0.3574 -0.3574 -0.8629
vn 0.1566 0.9125 -0.3780
vn 0.1566 -0.9125 -0.3780
vn 0.3574 0.3574 -0.8629
vn 0.3780 -0.9125 -0.1566
vn 0.8629 0.3574 -0.3574
vn 0.8629 -0.3574 -0.3574
vn 0.3780 0.9125 -0.1566
vn 0.3780 0.9125 0.1566
vn 0.3780 -0.9125 0.1566
vn 0.8629 0.3574 0.3574
vn 0.8629 -0.3574 0.3574
vn 0.3574 -0.3574 0.8629
vn 0.1566 0.9125 0.3780
vn 0.1566 -0.9125 0.3780
vn 0.3574 0.3574 0.8629
vn -0.3574 -0.3574 0.8629
vn -0.1566 0.9125 0.3780
vn -0.1566 -0.9125 0.3780
vn -0.3574 0.3574 0.8629
vn -0.8629 -0.3574 0.3574
vn -0.3780 0.9125 0.1566
vn -0.3780 -0.9125 0.1566
vn -0.8629 0.3574 0.3574
vn -0.8629 -0.3574 -0.3574
vn -0.3780 0.9125 -0.1566
vn -0.3780 -0.9125 -0.1566
vn -0.8629 0.3574 -0.3574
vn -0.3574 -0.3574 -0.8629
vn -0.1566 0.9125 -0.3780
vn -0.1566 -0.9125 -0.3780
vn -0.3574 0.3574 -0.8629
usemtl Material.001
s off
f 2/1/1 6/2/1 3/3/1
f 1/4/2 17/5/2 4/6/2
f 13/7/3 3/3/3 6/2/3
f 1/4/4 5/8/4 2/1/4
f 13/9/5 6/2/5 9/10/5
f 4/6/6 8/11/6 5/8/6
f 5/8/7 9/10/7 6/2/7
f 4/6/8 17/12/8 7/13/8
f 7/13/9 17/14/9 10/15/9
f 13/16/10 9/10/10 12/17/10
f 7/13/11 11/18/11 8/11/11
f 9/10/12 11/18/12 12/17/12
f 11/18/13 16/19/13 12/17/13
f 10/15/14 17/20/14 14/21/14
f 13/22/15 12/17/15 16/19/15
f 10/15/16 15/23/16 11/18/16
f 15/23/17 20/24/17 16/19/17
f 14/21/18 17/25/18 18/26/18
f 13/27/19 16/19/19 20/24/19
f 14/21/20 19/28/20 15/23/20
f 19/28/21 23/29/21 20/24/21
f 18/26/22 17/30/22 21/31/22
f 13/32/23 20/24/23 23/29/23
f 18/26/24 22/33/24 19/28/24
f 22/34/25 26/35/25 23/36/25
f 21/37/26 17/38/26 24/39/26
f 13/40/27 23/36/27 26/35/27
f 21/37/28 25/41/28 22/34/28
f 25/41/29 3/3/29 26/35/29
f 24/39/30 17/42/30 1/4/30
f 13/43/31 26/35/31 3/3/31
f 25/41/32 1/4/32 2/1/32
f 2/1/1 5/8/1 6/2/1
f 1/4/4 4/6/4 5/8/4
f 4/6/6 7/13/6 8/11/6
f 5/8/7 8/11/7 9/10/7
f 7/13/11 10/15/11 11/18/11
f 9/10/12 8/11/12 11/18/12
f 11/18/13 15/23/13 16/19/13
f 10/15/16 14/21/16 15/23/16
f 15/23/17 19/28/17 20/24/17
f 14/21/20 18/26/20 19/28/20
f 19/28/21 22/33/21 23/29/21
f 18/26/24 21/31/24 22/33/24
f 22/34/25 25/41/25 26/35/25
f 21/37/28 24/39/28 25/41/28
f 25/41/29 2/1/29 3/3/29
f 25/41/32 24/39/32 1/4/32
