# Blender v2.82 (sub 7) OBJ File: 'SweetPotato.blend'
# www.blender.org
mtllib SweetPotato.mtl
o Sphere
v 0.000000 0.654353 -0.917762
v 0.000000 0.422138 -1.342127
v 0.000000 -0.403334 -1.294815
v 0.000000 -0.820214 -0.478414
v 0.109611 0.792711 -0.441403
v 0.287155 0.692584 -0.841661
v 0.353736 0.354923 -1.206834
v 0.386147 -0.001390 -1.294327
v 0.365195 -0.363258 -1.221728
v 0.273349 -0.652566 -0.816336
v 0.146697 -0.806697 -0.442863
v 0.227245 0.817308 -0.337970
v 0.496628 0.667277 -0.628490
v 0.653330 0.354744 -0.816705
v 0.588956 -0.000000 -0.830827
v 0.708071 -0.325606 -0.856222
v 0.500000 -0.605485 -0.625038
v 0.272139 -0.807142 -0.339525
v 0.303730 0.762165 -0.180280
v 0.661898 0.665187 -0.378240
v 0.848207 0.344405 -0.446476
v 0.966353 -0.001031 -0.494512
v 0.859089 -0.309487 -0.454056
v 0.653281 -0.605485 -0.338268
v 0.356766 -0.807225 -0.185115
v 0.386182 0.814160 0.015921
v 0.701021 0.606278 0.051378
v 0.915861 0.347604 0.007142
v 1.027839 -0.006148 -0.004145
v 0.993087 -0.372138 0.001698
v 0.712559 -0.616764 -0.000585
v 0.388246 -0.791353 -0.009443
v 0.364187 0.809960 0.188246
v 0.597403 0.607723 0.290932
v 0.851979 0.387746 0.462997
v 0.896748 -0.021873 0.487900
v 0.788791 -0.367358 0.452314
v 0.653746 -0.605687 0.338435
v 0.336347 -0.703588 0.174180
v 0.285163 0.814832 0.352251
v 0.541334 0.737192 0.672899
v 0.698457 0.388304 0.848707
v 0.758493 -0.012314 0.936504
v 0.653281 -0.354838 0.816652
v 0.500000 -0.605485 0.625038
v 0.263015 -0.629705 0.315349
v 0.157328 0.761937 0.457960
v 0.273436 0.711918 0.820415
v 0.332685 0.314508 1.078819
v 0.342249 -0.000094 1.098645
v 0.344018 -0.338558 1.034213
v 0.270598 -0.581558 0.816652
v 0.124742 -0.584468 0.427677
v -0.000000 0.715543 0.491530
v -0.000000 0.686500 0.869596
v -0.000000 0.354385 1.196472
v -0.000000 -0.000000 1.291143
v -0.000000 -0.302946 1.098206
v -0.000000 -0.581638 0.883830
v -0.000000 -0.647552 0.475992
v -0.157328 0.761937 0.457960
v -0.273436 0.711918 0.820415
v -0.336925 0.326331 1.114646
v -0.384903 -0.000000 1.200344
v -0.344864 -0.339793 1.080566
v -0.270598 -0.581558 0.816652
v -0.128757 -0.679363 0.415023
v -0.285163 0.814832 0.352251
v -0.494181 0.600818 0.519813
v -0.656321 0.258232 0.718619
v -0.744056 -0.090313 0.818045
v -0.653282 -0.354838 0.816652
v -0.500000 -0.581558 0.625038
v -0.260231 -0.750336 0.320533
v -0.364187 0.809960 0.188246
v -0.597404 0.607723 0.290932
v -0.909221 0.374238 0.458272
v -0.962631 -0.009877 0.482393
v -0.872142 -0.362900 0.448630
v -0.654528 -0.582098 0.338715
v -0.338808 -0.669519 0.175347
v -0.385985 0.803161 0.015419
v -0.701021 0.606278 0.051378
v -0.915861 0.347604 0.007141
v -1.027839 -0.006148 -0.004146
v -0.993087 -0.372138 0.001697
v -0.710319 -0.661237 -0.000117
v -0.388648 -0.776330 -0.010056
v -0.307174 0.720272 -0.180695
v -0.678090 0.619229 -0.401881
v -0.708740 0.340221 -0.445305
v -0.897256 -0.007793 -0.523275
v -0.726638 -0.359758 -0.448729
v -0.653281 -0.655655 -0.338269
v -0.357046 -0.793731 -0.185211
v -0.259728 0.743142 -0.335309
v -0.489564 0.607555 -0.621138
v -0.653329 0.354744 -0.816705
v -0.707106 -0.000000 -0.883938
v -0.688565 -0.416818 -0.842136
v -0.499999 -0.667705 -0.625039
v -0.272352 -0.703159 -0.339805
v -0.140940 0.742640 -0.439586
v -0.290460 0.641971 -0.842978
v -0.353735 0.354923 -1.206834
v -0.386147 -0.001390 -1.294327
v -0.365065 -0.413315 -1.221563
v -0.273460 -0.666441 -0.816303
v -0.146748 -0.767177 -0.443130
v -0.036756 0.865660 -0.016803
v 0.000000 0.718054 -0.478384
v 0.000001 -0.027782 -1.425301
v 0.000000 -0.631009 -0.868683
v 0.000000 -0.765700 -0.003540
vt 0.866307 0.763232
vt 0.866307 0.662527
vt 0.893313 0.662527
vt 0.248868 0.372674
vt 0.308101 0.446720
vt 0.248868 0.461449
vt 0.777485 0.185260
vt 0.835904 0.112231
vt 0.809101 0.193121
vt 0.841357 0.562296
vt 0.866307 0.548058
vt 0.326260 0.532145
vt 0.248868 0.551389
vt 0.241181 0.267958
vt 0.273237 0.364703
vt 0.777485 0.288538
vt 0.777485 0.097705
vt 0.853813 0.027980
vt 0.885430 0.153599
vt 0.835904 0.215509
vt 0.734624 0.662527
vt 0.730601 0.576059
vt 0.391870 0.446720
vt 0.300414 0.342004
vt 0.918522 0.112231
vt 0.841357 0.763232
vt 0.358317 0.404777
vt 0.326260 0.308031
vt 0.853813 0.249015
vt 0.961758 0.193121
vt 0.918521 0.215509
vt 0.730601 0.763232
vt 0.634598 0.662527
vt 0.391870 0.342004
vt 0.624264 0.576059
vt 0.435708 0.364703
vt 0.976941 0.288538
vt 0.930142 0.288538
vt 0.624264 0.763232
vt 0.498830 0.662527
vt 0.403652 0.267958
vt 0.860102 0.288538
vt 0.498830 0.561821
vt 0.451103 0.267958
vt 0.332637 0.267958
vt 0.853813 0.328060
vt 0.363061 0.662527
vt 0.373396 0.561821
vt 0.391870 0.193912
vt 0.415213 0.171212
vt 0.326260 0.227884
vt 0.918521 0.361566
vt 0.498830 0.763232
vt 0.267058 0.561821
vt 0.358317 0.131139
vt 0.391870 0.089195
vt 0.308101 0.193912
vt 0.835904 0.361566
vt 0.941544 0.383954
vt 0.885430 0.423477
vt 0.267058 0.763232
vt 0.247962 0.662527
vt 0.809101 0.383954
vt 0.918521 0.464844
vt 0.835904 0.464844
vt 0.196006 0.763232
vt 0.190544 0.662527
vt 0.280925 0.171212
vt 0.308101 0.089195
vt 0.196006 0.561821
vt 0.326260 0.034393
vt 0.159400 0.763232
vt 0.132395 0.662527
vt 0.248868 0.163241
vt 0.248868 0.074466
vt 0.777485 0.391815
vt 0.159400 0.561821
vt 0.248868 0.006160
vt 0.853813 0.518893
vt 0.777485 0.479370
vt 0.719066 0.464844
vt 0.745869 0.383954
vt 0.864970 0.783710
vt 0.864970 0.882525
vt 0.840488 0.783710
vt 0.171476 0.025404
vt 0.216812 0.171212
vt 0.701157 0.527759
vt 0.864970 0.981341
vt 0.891470 0.882525
vt 0.189635 0.089195
vt 0.105867 0.111661
vt 0.189635 0.193912
vt 0.719066 0.361566
vt 0.636449 0.464844
vt 0.669541 0.423476
vt 0.730752 0.958577
vt 0.749490 0.859761
vt 0.139420 0.153605
vt 0.759333 0.783710
vt 0.701157 0.328060
vt 0.593212 0.383954
vt 0.636449 0.361566
vt 0.665131 0.882525
vt 0.105867 0.193912
vt 0.654991 0.783710
vt 0.062028 0.171212
vt 0.171476 0.227884
vt 0.094085 0.267958
vt 0.624829 0.288537
vt 0.694868 0.288538
vt 0.531911 0.882525
vt 0.531911 0.783710
vt 0.046634 0.267958
vt 0.165100 0.267958
vt 0.578030 0.288537
vt 0.654991 0.981341
vt 0.701157 0.249015
vt 0.398690 0.882525
vt 0.408831 0.783710
vt 0.105867 0.342004
vt 0.088562 0.364703
vt 0.171477 0.308031
vt 0.636449 0.215509
vt 0.531911 0.981341
vt 0.189635 0.342004
vt 0.719066 0.215509
vt 0.619382 0.193121
vt 0.669541 0.153598
vt 0.304489 0.981341
vt 0.285751 0.882525
vt 0.139420 0.404777
vt 0.304489 0.770204
vt 0.105867 0.446720
vt 0.636449 0.112231
vt 0.719066 0.112231
vt 0.195811 0.981341
vt 0.171329 0.882525
vt 0.216812 0.364703
vt 0.189635 0.446720
vt 0.745869 0.193121
vt 0.195811 0.770204
vt 0.171477 0.532145
vt 0.171329 0.770204
vt 0.701157 0.027980
vt 0.171329 0.981341
vt 0.144830 0.882525
vt 0.777485 0.009001
vt 0.373396 0.763232
vt 0.777485 0.546738
vt 0.840488 0.981341
vt 0.408831 0.981341
vn 0.3057 0.1731 -0.9363
vn -0.0933 0.9853 -0.1429
vn 0.1652 -0.9302 -0.3279
vn 0.2196 -0.3202 -0.9216
vn 0.3306 0.8279 -0.4530
vn -0.4645 0.8321 -0.3031
vn 0.0638 -0.9915 0.1138
vn 0.0453 -0.8180 -0.5735
vn 0.3055 -0.8754 -0.3746
vn 0.6799 0.3009 -0.6688
vn 0.6150 0.6317 -0.4720
vn -0.0437 0.9820 -0.1838
vn -0.0628 -0.9954 0.0719
vn 0.5170 -0.7399 -0.4304
vn 0.9012 0.1789 -0.3948
vn 0.2483 0.9599 -0.1300
vn 0.3533 0.9232 0.1514
vn -0.0907 -0.9947 0.0492
vn 0.6895 -0.6235 -0.3685
vn 0.6624 -0.0906 -0.7436
vn 0.3078 0.9312 -0.1955
vn 0.4536 -0.8557 -0.2490
vn 0.8820 -0.3483 -0.3173
vn 0.7252 0.5836 -0.3654
vn 0.6515 -0.7458 -0.1393
vn 0.9351 0.3356 -0.1137
vn 0.3117 0.9448 0.1012
vn 0.4741 -0.8804 -0.0054
vn 0.9514 -0.0950 -0.2928
vn 0.8452 0.5185 -0.1297
vn 0.1384 0.9414 -0.3076
vn -0.0641 -0.9928 0.1012
vn 0.4042 -0.7755 0.4849
vn 0.8644 -0.3108 0.3952
vn 0.6447 0.7641 0.0231
vn 0.1178 0.9923 0.0392
vn -0.0536 -0.9067 0.4183
vn 0.6504 -0.7471 0.1372
vn 0.9241 0.2844 0.2553
vn 0.5723 0.7833 0.2428
vn 0.8869 -0.3122 0.3406
vn 0.7954 0.5173 0.3158
vn 0.1227 0.9920 0.0296
vn -0.0647 -0.8976 0.4361
vn 0.7132 -0.5871 0.3830
vn 0.9370 0.2028 0.2845
vn 0.5121 0.8335 -0.2073
vn 0.0261 -0.8801 0.4741
vn 0.0107 -0.9229 0.3848
vn 0.4141 -0.6990 0.5831
vn 0.3639 0.0696 0.9288
vn -0.0154 0.9898 0.1415
vn -0.1573 -0.9679 0.1961
vn 0.5075 -0.4193 0.7528
vn 0.3648 0.5452 0.7548
vn -0.1651 0.9473 0.2744
vn 0.4775 0.2268 0.8489
vn -0.0787 0.9940 0.0764
vn 0.4017 -0.9044 -0.1438
vn 0.1613 -0.1837 0.9696
vn 0.3186 0.6649 0.6756
vn -0.2130 0.9328 0.2909
vn 0.5041 -0.8386 0.2066
vn 0.1756 -0.6856 0.7065
vn 0.1080 -0.9565 0.2711
vn -0.0126 -0.3337 0.9426
vn -0.2255 0.6834 0.6943
vn 0.2213 0.9395 0.2615
vn 0.1256 -0.9633 0.2373
vn -0.1596 -0.7499 0.6420
vn -0.2222 0.2516 0.9420
vn 0.0787 0.9940 0.0764
vn -0.7163 0.4940 0.4928
vn 0.1830 0.9497 0.2540
vn 0.2933 -0.9145 0.2788
vn -0.4351 -0.7344 0.5209
vn -0.7223 0.3517 0.5955
vn -0.4336 0.9010 -0.0146
vn 0.0764 -0.8454 0.5287
vn -0.6281 -0.2195 0.7465
vn -0.3941 -0.8770 -0.2749
vn -0.5879 -0.7435 0.3187
vn -0.7446 0.3496 0.5687
vn -0.5682 0.7739 0.2796
vn -0.3877 -0.8785 -0.2792
vn -0.8212 -0.2844 0.4946
vn -0.4264 0.5964 0.6800
vn -0.1434 0.9889 0.0397
vn -0.5723 0.7833 0.2428
vn -0.2701 -0.8011 0.5341
vn -0.9612 -0.0871 0.2619
vn -0.6118 0.7901 -0.0376
vn -0.1776 0.9840 -0.0163
vn 0.0154 -0.8682 0.4960
vn -0.6874 -0.6740 0.2706
vn -0.9806 0.1447 0.1325
vn -0.3358 -0.9414 0.0329
vn -0.7566 -0.4643 -0.4604
vn -0.8961 0.1627 -0.4129
vn -0.1974 0.8720 -0.4479
vn 0.0255 -0.9943 0.1034
vn -0.7091 -0.6928 -0.1311
vn -0.9248 0.3002 -0.2336
vn -0.2705 0.9626 0.0138
vn -0.4675 0.8839 -0.0127
vn 0.2617 -0.8884 -0.3772
vn -0.8275 -0.3646 -0.4270
vn -0.8655 0.2168 -0.4516
vn -0.2373 0.9376 -0.2540
vn -0.1059 -0.8316 -0.5452
vn -0.8977 -0.4400 -0.0231
vn -0.7998 0.5925 -0.0962
vn -0.4217 -0.7535 -0.5045
vn -0.7685 0.2177 -0.6017
vn -0.3017 0.9453 -0.1241
vn -0.3422 -0.9263 0.1580
vn -0.7568 -0.0985 -0.6462
vn -0.5761 0.6874 -0.4421
vn -0.1969 0.9533 -0.2289
vn -0.3666 -0.9219 0.1255
vn -0.3638 -0.9230 -0.1256
vn -0.1888 -0.1802 -0.9653
vn -0.3306 0.8279 -0.4530
vn 0.0840 0.9510 -0.2974
vn -0.3148 -0.9430 0.1083
vn 0.0081 -0.8473 -0.5310
vn -0.3057 0.1731 -0.9363
vn -0.0789 0.9866 -0.1430
vn 0.3872 0.2529 -0.8866
vn -0.4238 0.8164 -0.3922
vn 0.0126 -0.8998 -0.4362
vn 0.3269 -0.2041 -0.9228
vn 0.0789 0.7391 -0.6690
vn 0.1877 -0.8663 -0.4629
vn 0.3855 -0.8917 -0.2373
vn 0.9082 -0.1322 -0.3970
vn 0.5994 0.6116 -0.5164
vn 0.5227 -0.7455 -0.4136
vn 0.7875 -0.1188 -0.6048
vn 0.1247 0.9240 -0.3615
vn 0.6817 -0.6952 -0.2281
vn 0.8345 0.3451 -0.4296
vn 0.3392 0.9271 0.1596
vn 0.4543 -0.8571 -0.2428
vn 0.6374 0.2889 -0.7144
vn 0.7167 0.5160 -0.4690
vn 0.7249 -0.6208 -0.2985
vn 0.9423 0.3028 -0.1427
vn 0.5327 0.7354 -0.4188
vn 0.5158 -0.8484 -0.1189
vn 0.9326 -0.3401 -0.1205
vn 0.7706 0.6371 0.0172
vn 0.2577 -0.9632 0.0762
vn 0.9633 -0.0874 0.2538
vn 0.7545 0.5714 0.3229
vn 0.7386 -0.5815 0.3410
vn 0.9850 0.1154 0.1279
vn 0.5418 0.8358 0.0895
vn 0.8855 -0.3702 0.2808
vn 0.6986 0.7025 -0.1356
vn 0.7055 -0.6491 0.2847
vn 0.9221 0.1231 0.3668
vn 0.5688 0.7833 0.2508
vn 0.0594 -0.9977 0.0326
vn 0.4002 -0.6754 0.6194
vn 0.4773 0.2558 0.8407
vn -0.1207 0.9384 0.3236
vn -0.0744 -0.9966 0.0354
vn 0.3531 -0.1732 0.9194
vn 0.3645 0.5447 0.7553
vn 0.3400 0.0694 0.9379
vn -0.2359 0.9496 0.2066
vn 0.0399 -0.9864 0.1594
vn 0.4285 -0.4854 0.7621
vn 0.0975 0.5527 0.8277
vn 0.0840 -0.6076 0.7898
vn -0.0399 -0.9864 0.1594
vn -0.1951 -0.5269 0.8273
vn -0.0843 0.6132 0.7854
vn 0.0246 -0.6095 0.7924
vn -0.2485 0.2800 0.9273
vn 0.2359 0.9496 0.2066
vn -0.7536 0.5581 0.3471
vn -0.4284 -0.7231 0.5419
vn -0.7723 0.2651 0.5773
vn -0.2307 0.7295 0.6440
vn -0.1526 -0.9713 0.1826
vn -0.6519 -0.3193 0.6878
vn -0.5947 -0.7141 0.3693
vn -0.6784 0.1396 0.7213
vn -0.5688 0.7833 0.2508
vn -0.3761 -0.9037 0.2047
vn -0.8364 -0.2605 0.4822
vn -0.4923 0.8346 0.2472
vn -0.5270 0.8492 0.0331
vn -0.1379 -0.9592 0.2467
vn -0.9579 -0.2576 0.1264
vn -0.7545 0.5714 0.3229
vn -0.6473 -0.7381 0.1904
vn -0.9533 0.3019 -0.0038
vn -0.3867 -0.9187 -0.0804
vn -0.9654 -0.0955 -0.2425
vn -0.7674 0.6409 -0.0205
vn -0.7931 -0.3756 -0.4795
vn -0.7815 0.5053 -0.3660
vn -0.4993 0.7077 -0.4998
vn -0.8030 -0.5960 0.0087
vn -0.8635 0.4923 -0.1096
vn -0.2912 0.9553 0.0519
vn -0.1238 -0.9920 -0.0245
vn -0.8805 -0.0859 -0.4661
vn -0.7408 0.1820 -0.6466
vn -0.4551 -0.7978 -0.3954
vn -0.7720 0.2294 -0.5928
vn -0.2266 0.9379 -0.2627
vn -0.1667 -0.9647 -0.2038
vn -0.7793 -0.1475 -0.6090
vn -0.5830 0.6986 -0.4149
vn 0.0330 -0.8993 -0.4360
vn -0.3243 -0.3105 -0.8936
vn -0.1851 0.7869 -0.5886
vn -0.0703 -0.8798 -0.4701
vn -0.3872 0.2529 -0.8866
vn 0.0919 0.9576 -0.2730
usemtl None
s off
f 2/1/1 8/2/1 112/3/1
f 111/4/2 6/5/2 1/6/2
f 4/7/3 10/8/3 11/9/3
f 112/3/4 9/10/4 3/11/4
f 1/6/5 7/12/5 2/13/5
f 111/4/6 110/14/6 5/15/6
f 114/16/7 4/7/7 11/9/7
f 113/17/8 9/18/8 10/8/8
f 11/9/9 17/19/9 18/20/9
f 9/10/10 15/21/10 16/22/10
f 6/5/11 14/23/11 7/12/11
f 5/15/12 110/14/12 12/24/12
f 114/16/13 11/9/13 18/20/13
f 10/8/14 16/25/14 17/19/14
f 7/26/15 15/21/15 8/2/15
f 5/15/16 13/27/16 6/5/16
f 12/24/17 110/14/17 19/28/17
f 114/16/18 18/20/18 25/29/18
f 17/19/19 23/30/19 24/31/19
f 14/32/20 22/33/20 15/21/20
f 12/24/21 20/34/21 13/27/21
f 18/20/22 24/31/22 25/29/22
f 16/22/23 22/33/23 23/35/23
f 13/27/24 21/36/24 14/23/24
f 24/31/25 30/37/25 31/38/25
f 21/39/26 29/40/26 22/33/26
f 19/28/27 27/41/27 20/34/27
f 25/29/28 31/38/28 32/42/28
f 23/35/29 29/40/29 30/43/29
f 20/34/30 28/44/30 21/36/30
f 19/28/31 110/14/31 26/45/31
f 114/16/32 25/29/32 32/42/32
f 31/38/33 39/46/33 32/42/33
f 30/43/34 36/47/34 37/48/34
f 28/44/35 34/49/35 35/50/35
f 26/45/36 110/14/36 33/51/36
f 114/16/37 32/42/37 39/46/37
f 30/37/38 38/52/38 31/38/38
f 28/53/39 36/47/39 29/40/39
f 27/41/40 33/51/40 34/49/40
f 36/47/41 44/54/41 37/48/41
f 35/50/42 41/55/42 42/56/42
f 33/51/43 110/14/43 40/57/43
f 114/16/44 39/46/44 46/58/44
f 37/59/45 45/60/45 38/52/45
f 36/47/46 42/61/46 43/62/46
f 34/49/47 40/57/47 41/55/47
f 38/52/48 46/58/48 39/46/48
f 114/16/49 46/58/49 53/63/49
f 44/64/50 52/65/50 45/60/50
f 43/62/51 49/66/51 50/67/51
f 41/55/52 47/68/52 48/69/52
f 45/60/53 53/63/53 46/58/53
f 43/62/54 51/70/54 44/54/54
f 42/56/55 48/69/55 49/71/55
f 40/57/56 110/14/56 47/68/56
f 50/67/57 56/72/57 57/73/57
f 48/69/58 54/74/58 55/75/58
f 52/65/59 60/76/59 53/63/59
f 50/67/60 58/77/60 51/70/60
f 49/71/61 55/75/61 56/78/61
f 47/68/62 110/14/62 54/74/62
f 114/16/63 53/63/63 60/76/63
f 51/79/64 59/80/64 52/65/64
f 60/76/65 66/81/65 67/82/65
f 58/83/66 64/84/66 65/85/66
f 55/75/67 63/86/67 56/78/67
f 54/74/68 110/14/68 61/87/68
f 114/16/69 60/76/69 67/82/69
f 59/80/70 65/88/70 66/81/70
f 56/89/71 64/84/71 57/90/71
f 54/74/72 62/91/72 55/75/72
f 62/91/73 70/92/73 63/86/73
f 61/87/74 110/14/74 68/93/74
f 114/16/75 67/82/75 74/94/75
f 66/81/76 72/95/76 73/96/76
f 64/84/77 70/97/77 71/98/77
f 61/87/78 69/99/78 62/91/78
f 67/82/79 73/96/79 74/94/79
f 65/85/80 71/98/80 72/100/80
f 114/16/81 74/94/81 81/101/81
f 73/96/82 79/102/82 80/103/82
f 70/97/83 78/104/83 71/98/83
f 68/93/84 76/105/84 69/99/84
f 74/94/85 80/103/85 81/101/85
f 71/98/86 79/106/86 72/100/86
f 69/99/87 77/107/87 70/92/87
f 68/93/88 110/14/88 75/108/88
f 75/108/89 83/109/89 76/105/89
f 81/101/90 87/110/90 88/111/90
f 79/106/91 85/112/91 86/113/91
f 76/105/92 84/114/92 77/107/92
f 75/108/93 110/14/93 82/115/93
f 114/16/94 81/101/94 88/111/94
f 80/103/95 86/116/95 87/110/95
f 77/117/96 85/112/96 78/104/96
f 87/110/97 95/118/97 88/111/97
f 86/113/98 92/119/98 93/120/98
f 84/114/99 90/121/99 91/122/99
f 82/115/100 110/14/100 89/123/100
f 114/16/101 88/111/101 95/118/101
f 86/116/102 94/124/102 87/110/102
f 84/125/103 92/119/103 85/112/103
f 83/109/104 89/123/104 90/121/104
f 89/123/105 110/14/105 96/126/105
f 114/16/106 95/118/106 102/127/106
f 93/128/107 101/129/107 94/124/107
f 92/119/108 98/130/108 99/131/108
f 90/121/109 96/126/109 97/132/109
f 94/124/110 102/127/110 95/118/110
f 92/119/111 100/133/111 93/120/111
f 91/122/112 97/132/112 98/134/112
f 100/135/113 108/136/113 101/129/113
f 99/131/114 105/137/114 106/138/114
f 97/132/115 103/139/115 104/140/115
f 101/129/116 109/141/116 102/127/116
f 99/131/117 107/142/117 100/133/117
f 98/134/118 104/140/118 105/143/118
f 96/126/119 110/14/119 103/139/119
f 114/16/120 102/127/120 109/141/120
f 108/136/121 4/7/121 109/141/121
f 106/138/122 3/144/122 107/142/122
f 105/143/123 1/6/123 2/13/123
f 103/139/124 110/14/124 111/4/124
f 114/16/125 109/141/125 4/7/125
f 107/145/126 113/17/126 108/136/126
f 106/138/127 2/146/127 112/147/127
f 104/140/128 111/4/128 1/6/128
f 2/1/129 7/26/129 8/2/129
f 111/4/130 5/15/130 6/5/130
f 4/7/131 113/17/131 10/8/131
f 112/3/132 8/2/132 9/10/132
f 1/6/133 6/5/133 7/12/133
f 113/17/134 3/148/134 9/18/134
f 11/9/135 10/8/135 17/19/135
f 9/10/136 8/2/136 15/21/136
f 6/5/137 13/27/137 14/23/137
f 10/8/138 9/18/138 16/25/138
f 7/26/139 14/32/139 15/21/139
f 5/15/140 12/24/140 13/27/140
f 17/19/141 16/25/141 23/30/141
f 14/32/142 21/39/142 22/33/142
f 12/24/143 19/28/143 20/34/143
f 18/20/144 17/19/144 24/31/144
f 16/22/145 15/21/145 22/33/145
f 13/27/146 20/34/146 21/36/146
f 24/31/147 23/30/147 30/37/147
f 21/39/148 28/53/148 29/40/148
f 19/28/149 26/45/149 27/41/149
f 25/29/150 24/31/150 31/38/150
f 23/35/151 22/33/151 29/40/151
f 20/34/152 27/41/152 28/44/152
f 31/38/153 38/52/153 39/46/153
f 30/43/154 29/40/154 36/47/154
f 28/44/155 27/41/155 34/49/155
f 30/37/156 37/59/156 38/52/156
f 28/53/157 35/149/157 36/47/157
f 27/41/158 26/45/158 33/51/158
f 36/47/159 43/62/159 44/54/159
f 35/50/160 34/49/160 41/55/160
f 37/59/161 44/64/161 45/60/161
f 36/47/162 35/149/162 42/61/162
f 34/49/163 33/51/163 40/57/163
f 38/52/164 45/60/164 46/58/164
f 44/64/165 51/79/165 52/65/165
f 43/62/166 42/61/166 49/66/166
f 41/55/167 40/57/167 47/68/167
f 45/60/168 52/65/168 53/63/168
f 43/62/169 50/67/169 51/70/169
f 42/56/170 41/55/170 48/69/170
f 50/67/171 49/66/171 56/72/171
f 48/69/172 47/68/172 54/74/172
f 52/65/173 59/80/173 60/76/173
f 50/67/174 57/73/174 58/77/174
f 49/71/175 48/69/175 55/75/175
f 51/79/176 58/150/176 59/80/176
f 60/76/177 59/80/177 66/81/177
f 58/83/178 57/90/178 64/84/178
f 55/75/179 62/91/179 63/86/179
f 59/80/180 58/150/180 65/88/180
f 56/89/181 63/151/181 64/84/181
f 54/74/182 61/87/182 62/91/182
f 62/91/183 69/99/183 70/92/183
f 66/81/184 65/88/184 72/95/184
f 64/84/185 63/151/185 70/97/185
f 61/87/186 68/93/186 69/99/186
f 67/82/187 66/81/187 73/96/187
f 65/85/188 64/84/188 71/98/188
f 73/96/189 72/95/189 79/102/189
f 70/97/190 77/117/190 78/104/190
f 68/93/191 75/108/191 76/105/191
f 74/94/192 73/96/192 80/103/192
f 71/98/193 78/104/193 79/106/193
f 69/99/194 76/105/194 77/107/194
f 75/108/195 82/115/195 83/109/195
f 81/101/196 80/103/196 87/110/196
f 79/106/197 78/104/197 85/112/197
f 76/105/198 83/109/198 84/114/198
f 80/103/199 79/102/199 86/116/199
f 77/117/200 84/125/200 85/112/200
f 87/110/201 94/124/201 95/118/201
f 86/113/202 85/112/202 92/119/202
f 84/114/203 83/109/203 90/121/203
f 86/116/204 93/128/204 94/124/204
f 84/125/205 91/152/205 92/119/205
f 83/109/206 82/115/206 89/123/206
f 93/128/207 100/135/207 101/129/207
f 92/119/208 91/152/208 98/130/208
f 90/121/209 89/123/209 96/126/209
f 94/124/210 101/129/210 102/127/210
f 92/119/211 99/131/211 100/133/211
f 91/122/212 90/121/212 97/132/212
f 100/135/213 107/145/213 108/136/213
f 99/131/214 98/130/214 105/137/214
f 97/132/215 96/126/215 103/139/215
f 101/129/216 108/136/216 109/141/216
f 99/131/217 106/138/217 107/142/217
f 98/134/218 97/132/218 104/140/218
f 108/136/219 113/17/219 4/7/219
f 106/138/220 112/147/220 3/144/220
f 105/143/221 104/140/221 1/6/221
f 107/145/222 3/148/222 113/17/222
f 106/138/223 105/137/223 2/146/223
f 104/140/224 103/139/224 111/4/224
